<svg width="28" height="26" viewBox="0 0 28 26" fill="none" xmlns="http://www.w3.org/2000/svg">
<path d="M4.2 6.5C4.2 4.77609 4.79 3.12279 5.8402 1.90381C6.89041 0.68482 8.31479 0 9.8 0C11.2852 0 12.7096 0.68482 13.7598 1.90381C14.81 3.12279 15.4 4.77609 15.4 6.5C15.4 8.22391 14.81 9.87721 13.7598 11.0962C12.7096 12.3152 11.2852 13 9.8 13C8.31479 13 6.89041 12.3152 5.8402 11.0962C4.79 9.87721 4.2 8.22391 4.2 6.5ZM0 24.4918C0 19.4898 3.49125 15.4375 7.80062 15.4375H11.7994C16.1087 15.4375 19.6 19.4898 19.6 24.4918C19.6 25.3246 19.0181 26 18.3006 26H1.29938C0.581875 26 0 25.3246 0 24.4918ZM26.6569 26H20.6237C20.86 25.5227 21 24.9691 21 24.375V23.9688C21 20.8863 19.8144 18.1187 17.9463 16.2602C18.0513 16.2551 18.1519 16.25 18.2569 16.25H20.9431C24.8412 16.25 28 19.9164 28 24.441C28 25.3043 27.3962 26 26.6569 26ZM18.9 13C17.5437 13 16.3188 12.3602 15.4306 11.3293C16.2925 9.97852 16.8 8.30781 16.8 6.5C16.8 5.13906 16.5112 3.8543 15.9994 2.72695C16.8131 2.03633 17.815 1.625 18.9 1.625C21.6081 1.625 23.8 4.16914 23.8 7.3125C23.8 10.4559 21.6081 13 18.9 13Z" fill="black"/>
</svg>
