<svg width="24" height="30" viewBox="0 0 24 30" fill="none" xmlns="http://www.w3.org/2000/svg">
<path d="M8.11113 0.746816C8.46821 0.589054 8.86433 0.657771 9.17354 0.931106C9.4441 1.17027 9.61867 1.54007 9.65808 1.94591L9.66658 2.12178V14.5C9.66658 16.0376 10.6184 17.2973 11.8258 17.4087L11.9999 17.4167H21.9025C22.2812 17.4167 22.6363 17.6463 22.8551 18.033C23.0737 18.4194 23.1286 18.9147 23.0024 19.3609C21.4014 25.023 17.0815 29.0833 11.9999 29.0833C5.55659 29.0833 0.333252 22.5541 0.333252 14.5C0.333252 8.148 3.5814 2.7481 8.11113 0.746816ZM13.1537 -0.00314331L13.2948 0.00560397C18.7045 0.753131 22.9974 6.11927 23.5954 12.8814C23.6319 13.2937 23.5262 13.7056 23.3049 14.0145C23.1152 14.2794 22.8559 14.4469 22.5768 14.4893L22.4359 14.5H13.1666C12.5683 14.5 12.0752 13.937 12.0078 13.2117L11.9999 13.0417V1.4551C11.9999 1.04044 12.1411 0.645375 12.3883 0.368743C12.6001 0.131618 12.8726 0.000725574 13.1537 -0.00314331Z" fill="#09244B"/>
</svg>
