<svg width="22" height="24" viewBox="0 0 22 24" fill="none" xmlns="http://www.w3.org/2000/svg">
<path fill-rule="evenodd" clip-rule="evenodd" d="M2.83333 4.20832C2.83333 3.81712 3.0945 3.49999 3.41667 3.49999H15.6667C16.311 3.49999 16.8333 2.86572 16.8333 2.08332C16.8333 1.30093 16.311 0.666656 15.6667 0.666656H3.41667C1.80584 0.666656 0.5 2.25232 0.5 4.20832V20.5C0.5 22.0648 1.54467 23.3333 2.83333 23.3333H19.1667C20.4554 23.3333 21.5 22.0648 21.5 20.5V7.74999C21.5 6.18518 20.4554 4.91666 19.1667 4.91666H3.41667C3.0945 4.91666 2.83333 4.59952 2.83333 4.20832ZM15.0833 16.25C16.0498 16.25 16.8333 15.2986 16.8333 14.125C16.8333 12.9514 16.0498 12 15.0833 12C14.1169 12 13.3333 12.9514 13.3333 14.125C13.3333 15.2986 14.1169 16.25 15.0833 16.25Z" fill="#09244B"/>
</svg>
